<svg id="Group_157" data-name="Group 157" xmlns="http://www.w3.org/2000/svg" width="166.891" height="57.9" viewBox="0 0 166.891 57.9">
  <g id="Group_156" data-name="Group 156">
    <path id="Path_18" data-name="Path 18" d="M-146.7,397.674v-57.9H-313.587v57.9Z" transform="translate(313.587 -339.774)" fill="#005ead"/>
    <path id="Path_19" data-name="Path 19" d="M-230.191,396.079c45.408,0,82.22-12.275,82.22-27.417s-36.812-27.417-82.22-27.417-82.219,12.275-82.219,27.417,36.812,27.417,82.219,27.417Z" transform="translate(313.636 -339.712)" fill="#ffe200"/>
    <path id="Path_20" data-name="Path 20" d="M-275.543,380.113c.4,0,.559-.159.346-.4a7.188,7.188,0,0,1-.453-2.824V361.011a7.188,7.188,0,0,1,.453-2.824c.214-.24.053-.4-.346-.4H-289.9c-.4,0-.559.159-.346.4a7.189,7.189,0,0,1,.453,2.824V376.89a7.189,7.189,0,0,1-.453,2.824c-.214.24-.053.4.346.4Z" transform="translate(314.555 -339.567)" fill="#0059a9"/>
    <path id="Path_21" data-name="Path 21" d="M-254.81,365.757l5.226-7.089c.214-.214.106-.507.106-.64s0-.24.107-.24H-235.2c.186,0,.107.132.027.24L-241,366.18a.743.743,0,0,0,.053,1.013l8.019,12.681c.08.106.159.24-.026.24h-17.318c-.106,0-.106-.106-.106-.24s.267-1.279.053-1.492l-4.476-6.85v5.358a7.187,7.187,0,0,0,.453,2.824c.214.24.053.4-.346.4h-13.934c-.4,0-.559-.159-.346-.4a7.2,7.2,0,0,0,.452-2.824V361.011a7.2,7.2,0,0,0-.452-2.824c-.214-.24-.053-.4.346-.4H-254.7c.4,0,.559.159.346.4a7.188,7.188,0,0,0-.453,2.824l0,4.746Z" transform="translate(314.009 -339.567)" fill="#0059a9"/>
    <path id="Path_22" data-name="Path 22" d="M-216.227,371.824a.377.377,0,0,1,.4-.4h5.514a13.634,13.634,0,0,1,2.795.105c.176.177.395.067.395-.268v-5.351c0-.334-.219-.445-.4-.268a13.539,13.539,0,0,1-2.794.106h-5.515a.377.377,0,0,1-.4-.4v-1.083a.377.377,0,0,1,.4-.4h7.926a7.12,7.12,0,0,1,2.794.448c.237.211.395.053.395-.342v-6.185h-24.963c-.395,0-.553.2-.343.435a7.107,7.107,0,0,1,.448,2.795v15.711a7.1,7.1,0,0,1-.448,2.795c-.21.237-.053.395.342.395h24.963v-6.571c0-.4-.158-.554-.395-.343a7.1,7.1,0,0,1-2.795.448h-7.925a.378.378,0,0,1-.4-.4v-1.225Z" transform="translate(314.578 -339.565)" fill="#0059a9"/>
    <path id="Path_23" data-name="Path 23" d="M-166.316,379.913s-8.292-19.7-8.41-20.031a2.011,2.011,0,0,1-.029-1.4c.207-.505.029-.624-.327-.624H-194.49c-.356,0-.534.119-.326.624a2.016,2.016,0,0,1-.03,1.4c-.119.327-7.459,20.031-7.459,20.031h11.933c.282,0,.341-.133.252-.326a1.464,1.464,0,0,1,.044-.967l.64-2.124a.875.875,0,0,1,1.01-.684h5.246a.875.875,0,0,1,1.01.684l.64,2.124a1.464,1.464,0,0,1,.044.967c-.09.193-.029.326.253.326Zm-21.152-8.454c-.186-.016-.208-.209-.156-.343l1.292-3.061c.053-.089.082-.178.194-.178s.142.09.193.178l1.293,3.061c.053.133.03.327-.155.343Z" transform="translate(314.058 -339.563)" fill="#0059a9"/>
    <path id="Path_24" data-name="Path 24" d="M-144.705,340.163c.493,0,.934-.036.934-.626,0-.476-.432-.564-.838-.564h-.793v1.19Zm-.7,2.159h-.581V338.48h1.463c.908,0,1.357.335,1.357,1.093a1,1,0,0,1-1,1.057l1.093,1.693h-.652l-1.014-1.666h-.67v1.666Zm.705.855a2.69,2.69,0,0,0,2.7-2.785,2.69,2.69,0,0,0-2.7-2.767,2.7,2.7,0,0,0-2.715,2.767,2.7,2.7,0,0,0,2.715,2.785Zm-3.385-2.785a3.328,3.328,0,0,1,3.385-3.323,3.323,3.323,0,0,1,3.366,3.323,3.326,3.326,0,0,1-3.366,3.34,3.331,3.331,0,0,1-3.385-3.34Z" transform="translate(293.4 -319.419)" fill="#0059a9"/>
  </g>
</svg>
